<svg fill="#000000" xmlns="http://www.w3.org/2000/svg"  viewBox="0 0 26 26" width="26px" height="26px"><path d="M 1.6875 0 C 0.757813 0 0 0.757813 0 1.6875 L 0 14.3125 C 0 15.242188 0.757813 16 1.6875 16 L 4 16 L 4 19 L 7 22 L 10 22 L 10 24.3125 C 10 25.242188 10.757813 26 11.6875 26 L 24.3125 26 C 25.242188 26 26 25.242188 26 24.3125 L 26 11.6875 C 26 10.757813 25.242188 10 24.3125 10 L 16 10 L 16 1.6875 C 16 0.757813 15.242188 0 14.3125 0 Z M 2 2 L 14 2 L 14 10 L 11.6875 10 C 11.300781 10 10.941406 10.125 10.65625 10.34375 C 10.246094 10.105469 9.871094 9.886719 9.53125 9.65625 C 10.355469 8.796875 11.15625 7.753906 11.78125 6.5 C 11.867188 6.347656 11.910156 6.175781 11.90625 6 L 13 6 L 13 4 L 9 4 L 9 3 L 7 3 L 7 4 L 3 4 L 3 6 L 5.125 6 C 4.859375 6.097656 4.644531 6.300781 4.539063 6.5625 C 4.429688 6.824219 4.441406 7.121094 4.5625 7.375 C 4.5625 7.375 4.894531 8.078125 5.6875 8.96875 C 5.894531 9.199219 6.132813 9.457031 6.40625 9.71875 C 4.988281 10.753906 3.78125 11.21875 3.78125 11.21875 C 3.40625 11.300781 3.109375 11.59375 3.023438 11.972656 C 2.9375 12.347656 3.074219 12.738281 3.375 12.976563 C 3.679688 13.21875 4.089844 13.261719 4.4375 13.09375 C 4.4375 13.09375 6.117188 12.46875 8 11 C 8.519531 11.378906 9.078125 11.773438 9.75 12.15625 C 9.828125 12.199219 9.914063 12.230469 10 12.25 L 10 14 L 6 14 L 5.5 13.5 L 5 14 L 2 14 Z M 5.8125 6 L 9.75 6 C 9.21875 6.953125 8.601563 7.738281 7.9375 8.40625 C 7.640625 8.136719 7.390625 7.882813 7.1875 7.65625 C 6.535156 6.925781 6.375 6.5625 6.375 6.5625 C 6.273438 6.304688 6.070313 6.101563 5.8125 6 Z M 16.96875 13.3125 L 19.0625 13.3125 L 22.5 22.625 L 20.34375 22.625 L 19.65625 20.625 L 16.34375 20.625 L 15.65625 22.625 L 13.5 22.625 Z M 17.96875 15.875 L 16.84375 19.15625 L 19.15625 19.15625 L 18.03125 15.875 Z M 7 16 L 10 16 L 10 19 L 7 19 Z"/></svg>